<svg width="251" height="201" version="1.1" xmlns="http://www.w3.org/2000/svg" desc="Created with imagetracer.js version 1.2.6" ><path fill="rgb(239,239,239)" stroke="rgb(239,239,239)" stroke-width="1" opacity="1" d="M 166.5 82 L 167 84.5 L 166 84.5 L 166.5 82 Z " /><path fill="rgb(239,239,239)" stroke="rgb(239,239,239)" stroke-width="1" opacity="1" d="M 156.5 84 L 157 96.5 L 156 96.5 L 156.5 84 Z " /><path fill="rgb(239,239,239)" stroke="rgb(239,239,239)" stroke-width="1" opacity="1" d="M 171.5 84 L 173.5 84 L 175 84.5 L 172.5 86 L 171.5 84 Z " /><path fill="rgb(239,239,239)" stroke="rgb(239,239,239)" stroke-width="1" opacity="1" d="M 137.5 85 L 136.5 87 L 137.5 85 Z " /><path fill="rgb(239,239,239)" stroke="rgb(239,239,239)" stroke-width="1" opacity="1" d="M 150.5 85 L 151 98.5 L 150 98.5 L 150.5 85 Z " /><path fill="rgb(239,239,239)" stroke="rgb(239,239,239)" stroke-width="1" opacity="1" d="M 175.5 86 L 174.5 88 L 175.5 86 Z " /><path fill="rgb(239,239,239)" stroke="rgb(239,239,239)" stroke-width="1" opacity="1" d="M 115.5 87 L 116.5 89 L 115.5 87 Z " /><path fill="rgb(239,239,239)" stroke="rgb(239,239,239)" stroke-width="1" opacity="1" d="M 133.5 89 L 132.5 91 L 133.5 89 Z " /><path fill="rgb(239,239,239)" stroke="rgb(239,239,239)" stroke-width="1" opacity="1" d="M 83.5 101 L 86 101.5 L 83.5 102 L 83.5 101 Z " /><path fill="rgb(239,239,239)" stroke="rgb(239,239,239)" stroke-width="1" opacity="1" d="M 165.5 101 L 168 101.5 L 165.5 102 L 165.5 101 Z " /><path fill="rgb(239,239,239)" stroke="rgb(239,239,239)" stroke-width="1" opacity="1" d="M 72.5 104 L 73 118.5 L 72 118.5 L 72.5 104 Z " /><path fill="rgb(239,239,239)" stroke="rgb(239,239,239)" stroke-width="1" opacity="1" d="M 133.5 107 L 132.5 109 L 133.5 107 Z " /><path fill="rgb(239,239,239)" stroke="rgb(239,239,239)" stroke-width="1" opacity="1" d="M 155.5 108 L 157 108.5 L 157 119.5 L 156 119.5 L 156 109.5 L 155.5 108 Z " /><path fill="rgb(239,239,239)" stroke="rgb(239,239,239)" stroke-width="1" opacity="1" d="M 119.5 109 L 120.5 111 L 119.5 109 Z " /><path fill="rgb(239,239,239)" stroke="rgb(239,239,239)" stroke-width="1" opacity="1" d="M 150.5 110 L 151 119.5 L 150 119.5 L 150.5 110 Z " /><path fill="rgb(239,239,239)" stroke="rgb(239,239,239)" stroke-width="1" opacity="1" d="M 112.5 111 L 113.5 113 L 112.5 111 Z " /><path fill="rgb(239,239,239)" stroke="rgb(239,239,239)" stroke-width="1" opacity="1" d="M 135.5 113 L 133.5 116 L 135.5 113 Z " /><path fill="rgb(239,239,239)" stroke="rgb(239,239,239)" stroke-width="1" opacity="1" d="M 131.5 117 L 129.5 120 L 131.5 117 Z " /><path fill="rgb(239,239,239)" stroke="rgb(239,239,239)" stroke-width="1" opacity="1" d="M 72.5 126 L 79 126.5 L 72.5 127 L 72.5 126 Z " /><path fill="rgb(239,239,239)" stroke="rgb(239,239,239)" stroke-width="1" opacity="1" d="M 94.5 126 L 101 126.5 L 94.5 127 L 94.5 126 Z " /><path fill="rgb(239,239,239)" stroke="rgb(239,239,239)" stroke-width="1" opacity="1" d="M 150.5 126 L 157 126.5 L 150.5 127 L 150.5 126 Z " /><path fill="rgb(239,239,239)" stroke="rgb(239,239,239)" stroke-width="1" opacity="1" d="M 172.5 126 L 179 126.5 L 172.5 127 L 172.5 126 Z " /><path fill="rgb(255,255,255)" stroke="rgb(255,255,255)" stroke-width="1" opacity="1" d="M 0 0 L 251 0 L 251 201 L 0 201 L 0 0 Z M 160 76 L 148 79 L 138 85 Q 129 91 126 102 L 117 89 Q 109 81 98 77 L 90 78 L 92 78 L 94 83 L 94 97 L 87 95 L 70 96 L 72 100 L 72 123 L 70 127 L 81 127 L 78 119 L 78 101 L 94 103 L 94 122 L 92 126 L 93 127 L 102 127 L 100 122 L 101 85 L 110 90 Q 118 97 121 109 L 121 110 L 107 101 L 105 102 L 105 108 L 111 110 L 122 121 Q 121 123 128 122 L 132 116 L 148 106 L 161 102 L 172 101 L 172 122 L 170 127 L 181 127 L 178 121 L 178 102 L 180 97 L 181 95 L 159 96 L 157 97 L 157 82 L 160 78 L 160 76 Z M 170 78 Q 166 80 166 85 Q 167 89 175 88 Q 178 87 177 82 Q 176 77 170 78 Z M 156 108 L 150 110 L 150 124 L 148 127 L 159 127 L 157 123 L 157 109 L 156 108 Z " /><path fill="rgb(255,255,255)" stroke="rgb(255,255,255)" stroke-width="1" opacity="1" d="M 169.5 81 L 170 84.5 L 169 84.5 L 169.5 81 Z " /><path fill="rgb(255,255,255)" stroke="rgb(255,255,255)" stroke-width="1" opacity="1" d="M 174.5 82 L 175 84 L 173 83.5 L 174.5 82 Z " /><path fill="rgb(255,255,255)" stroke="rgb(255,255,255)" stroke-width="1" opacity="1" d="M 149.5 85 L 150 99 Q 137.5 102.1 129.5 111 L 130 109.5 Q 132.6 95.6 142.5 89 L 149.5 85 Z " /><path fill="rgb(5,5,5)" stroke="rgb(5,5,5)" stroke-width="1" opacity="1" d="M 91.5 77 Q 108.3 79.2 117 89.5 L 125.5 104 Q 129.5 92 138.5 85 Q 146.1 78.6 158.5 77 L 157 79.5 L 156 81.5 L 156 97.5 L 157.5 97 L 162.5 96 L 178.5 96 L 179.5 95 L 179 96.5 L 178 98.5 L 178 123.5 L 179 126 L 171 125.5 L 173 121.5 L 173 101 L 162.5 101 L 148.5 105 Q 135.3 110.3 127.5 121 L 122 121 L 114.5 112 L 105 107 L 105.5 101 L 121.5 112 L 122 109.5 Q 118.9 97.1 110.5 90 L 100.5 84 L 100 123.5 L 101 126 L 93.5 126 L 93 124.5 L 95 120.5 L 95 103 L 88.5 101 L 79.5 101 L 78.5 100 L 78 122.5 L 80 125.5 L 71.5 126 L 72 124.5 L 73 121.5 L 73 100.5 L 71 96.5 L 87.5 96 L 88.5 97 L 95 97 L 95 83.5 L 93 78 L 91.5 77 Z M 151 84 L 142 89 Q 133 96 129 108 L 130 112 L 138 105 L 151 99 L 151 84 Z " /><path fill="rgb(5,5,5)" stroke="rgb(5,5,5)" stroke-width="1" opacity="1" d="M 169.5 79 Q 175 78 176 81.5 Q 177 86 174.5 87 L 170.5 88 L 168 87 L 167 81.5 L 169.5 79 Z M 170 80 Q 167 81 168 85 Q 169 87 173 87 Q 176 86 175 82 Q 174 79 170 80 Z " /><path fill="rgb(5,5,5)" stroke="rgb(5,5,5)" stroke-width="1" opacity="1" d="M 170 81 Q 174.5 79.3 173 84.5 L 170 84.5 L 170 81 Z " /><path fill="rgb(5,5,5)" stroke="rgb(5,5,5)" stroke-width="1" opacity="1" d="M 154.5 109 L 156 109.5 L 156 122.5 L 158 125.5 L 149.5 126 L 150 124.5 L 151 122.5 L 151 110 L 154.5 109 Z " /><path fill="rgb(170,170,170)" stroke="rgb(170,170,170)" stroke-width="1" opacity="1" d="M 94.5 77 L 97 77.5 L 94.5 78 L 94.5 77 Z " /><path fill="rgb(170,170,170)" stroke="rgb(170,170,170)" stroke-width="1" opacity="1" d="M 159.5 77 L 157.5 80 L 159.5 77 Z " /><path fill="rgb(170,170,170)" stroke="rgb(170,170,170)" stroke-width="1" opacity="1" d="M 170.5 78 L 173 78.5 L 170.5 79 L 170.5 78 Z " /><path fill="rgb(170,170,170)" stroke="rgb(170,170,170)" stroke-width="1" opacity="1" d="M 168.5 79 Q 171.5 80.5 168.5 82 Q 165.5 80.5 168.5 79 Z " /><path fill="rgb(170,170,170)" stroke="rgb(170,170,170)" stroke-width="1" opacity="1" d="M 174.5 79 Q 178 81 173.5 83 L 173 80.5 L 174.5 79 Z " /><path fill="rgb(170,170,170)" stroke="rgb(170,170,170)" stroke-width="1" opacity="1" d="M 156.5 81 L 157 83.5 L 156 83.5 L 156.5 81 Z " /><path fill="rgb(170,170,170)" stroke="rgb(170,170,170)" stroke-width="1" opacity="1" d="M 108.5 82 L 109.5 84 L 108.5 82 Z " /><path fill="rgb(170,170,170)" stroke="rgb(170,170,170)" stroke-width="1" opacity="1" d="M 94.5 83 L 95 96.5 L 94 96.5 L 94.5 83 Z " /><path fill="rgb(170,170,170)" stroke="rgb(170,170,170)" stroke-width="1" opacity="1" d="M 111.5 84 L 113.5 87 L 111.5 84 Z " /><path fill="rgb(170,170,170)" stroke="rgb(170,170,170)" stroke-width="1" opacity="1" d="M 168.5 84 L 167.5 86 L 168.5 84 Z " /><path fill="rgb(170,170,170)" stroke="rgb(170,170,170)" stroke-width="1" opacity="1" d="M 170.5 85 L 172.5 86 L 174 85.5 L 173.5 88 L 170.5 87 L 169 87.5 L 170.5 85 Z " /><path fill="rgb(170,170,170)" stroke="rgb(170,170,170)" stroke-width="1" opacity="1" d="M 135.5 87 L 134.5 89 L 135.5 87 Z " /><path fill="rgb(170,170,170)" stroke="rgb(170,170,170)" stroke-width="1" opacity="1" d="M 141.5 89 L 139.5 92 L 141.5 89 Z " /><path fill="rgb(170,170,170)" stroke="rgb(170,170,170)" stroke-width="1" opacity="1" d="M 110.5 90 L 113.5 94 L 110.5 90 Z " /><path fill="rgb(170,170,170)" stroke="rgb(170,170,170)" stroke-width="1" opacity="1" d="M 117.5 90 L 118.5 92 L 117.5 90 Z " /><path fill="rgb(170,170,170)" stroke="rgb(170,170,170)" stroke-width="1" opacity="1" d="M 131.5 92 L 130.5 94 L 131.5 92 Z " /><path fill="rgb(170,170,170)" stroke="rgb(170,170,170)" stroke-width="1" opacity="1" d="M 137.5 93 L 135.5 96 L 137.5 93 Z " /><path fill="rgb(170,170,170)" stroke="rgb(170,170,170)" stroke-width="1" opacity="1" d="M 70.5 95 L 85 95.5 L 70.5 96 L 70.5 95 Z " /><path fill="rgb(170,170,170)" stroke="rgb(170,170,170)" stroke-width="1" opacity="1" d="M 166.5 95 L 178.5 95 L 180 96.5 L 178.5 96 L 166.5 96 L 166.5 95 Z " /><path fill="rgb(170,170,170)" stroke="rgb(170,170,170)" stroke-width="1" opacity="1" d="M 88.5 96 L 91 96.5 L 88.5 97 L 88.5 96 Z " /><path fill="rgb(170,170,170)" stroke="rgb(170,170,170)" stroke-width="1" opacity="1" d="M 115.5 96 L 116.5 98 L 115.5 96 Z " /><path fill="rgb(170,170,170)" stroke="rgb(170,170,170)" stroke-width="1" opacity="1" d="M 72.5 100 L 73 103.5 L 72 103.5 L 72.5 100 Z " /><path fill="rgb(170,170,170)" stroke="rgb(170,170,170)" stroke-width="1" opacity="1" d="M 86.5 101 L 89 101.5 L 86.5 102 L 86.5 101 Z " /><path fill="rgb(170,170,170)" stroke="rgb(170,170,170)" stroke-width="1" opacity="1" d="M 124.5 101 L 126 103.5 L 124 102.5 L 124.5 101 Z " /><path fill="rgb(170,170,170)" stroke="rgb(170,170,170)" stroke-width="1" opacity="1" d="M 162.5 101 L 165 101.5 L 162.5 102 L 162.5 101 Z " /><path fill="rgb(170,170,170)" stroke="rgb(170,170,170)" stroke-width="1" opacity="1" d="M 172.5 101 L 173 121.5 L 172 121.5 L 172.5 101 Z " /><path fill="rgb(170,170,170)" stroke="rgb(170,170,170)" stroke-width="1" opacity="1" d="M 94.5 103 L 95 120.5 L 94 120.5 L 94.5 103 Z " /><path fill="rgb(170,170,170)" stroke="rgb(170,170,170)" stroke-width="1" opacity="1" d="M 116.5 107 L 117.5 109 L 116.5 107 Z " /><path fill="rgb(170,170,170)" stroke="rgb(170,170,170)" stroke-width="1" opacity="1" d="M 108.5 108 L 109.5 110 L 108.5 108 Z " /><path fill="rgb(170,170,170)" stroke="rgb(170,170,170)" stroke-width="1" opacity="1" d="M 121.5 109 L 122 111.5 L 121 111.5 L 121.5 109 Z " /><path fill="rgb(170,170,170)" stroke="rgb(170,170,170)" stroke-width="1" opacity="1" d="M 131.5 109 L 129.5 112 L 131.5 109 Z " /><path fill="rgb(170,170,170)" stroke="rgb(170,170,170)" stroke-width="1" opacity="1" d="M 137.5 111 L 136.5 113 L 137.5 111 Z " /><path fill="rgb(170,170,170)" stroke="rgb(170,170,170)" stroke-width="1" opacity="1" d="M 114.5 112 L 121.5 120 L 114.5 112 Z " /><path fill="rgb(170,170,170)" stroke="rgb(170,170,170)" stroke-width="1" opacity="1" d="M 72.5 119 L 73 121.5 L 72 121.5 L 72.5 119 Z " /><path fill="rgb(170,170,170)" stroke="rgb(170,170,170)" stroke-width="1" opacity="1" d="M 128.5 120 L 127.5 122 L 123 121.5 L 128.5 120 Z " /><path fill="rgb(170,170,170)" stroke="rgb(170,170,170)" stroke-width="1" opacity="1" d="M 150.5 120 L 151 122.5 L 150 122.5 L 150.5 120 Z " /><path fill="rgb(170,170,170)" stroke="rgb(170,170,170)" stroke-width="1" opacity="1" d="M 156.5 120 L 157 122.5 L 156 122.5 L 156.5 120 Z " /><path fill="rgb(170,170,170)" stroke="rgb(170,170,170)" stroke-width="1" opacity="1" d="M 92.5 125 L 93.5 127 Q 90.7 127.7 92.5 125 Z " /></svg>